# xmcd CD database file
#
# Track frame offsets:
#	150
#	13266
#	24971
#	42308
#	53263
#	67992
#	115186
#	127662
#	139537
#	153509
#	166078
#	180008
#	190903
#	205898
#	219722
#	233763
#	277120
#	289415
#
# Disc length: 4039 seconds
#
# Revision: 0
# Processed by: cddbd v1.5.2PL0 Copyright (c) Steve Scherf et al.
# Submitted via: CDex 1.70beta2
#
DISCID=f10fc512
DTITLE=Erroll Garner - Erroll Garner CD6
DYEAR=2005
DGENRE=Jazz
TTITLE0=1-Frankie And Johnny Fantasy
TTITLE1=2-I Can´t Believe That You´re In Love With Me
TTITLE2=3-People Will Say We´re In Love
TTITLE3=4-Spring Is Here
TTITLE4=5-Night And Day
TTITLE5=6-Meatless Pay Day (Parts 1+ 2)
TTITLE6=7-Cherchez La Femme
TTITLE7=8-I Don´t Stand A Ghost Of A Chance With You
TTITLE8=9-Loot To Boot
TTITLE9=10-Always
TTITLE10=11-September Song
TTITLE11=12-Erroll´s Peril
TTITLE12=13-Cherokee - Part 1
TTITLE13=14-Cherokee - Part 2
TTITLE14=15-Gliss In The Dark
TTITLE15=16-In The Beginning
TTITLE16=17-Just You, Just Me
TTITLE17=18-I Surrender Dear
EXTD=YEAR: 2005
EXTT0=
EXTT1=
EXTT2=
EXTT3=
EXTT4=
EXTT5=
EXTT6=
EXTT7=
EXTT8=
EXTT9=
EXTT10=
EXTT11=
EXTT12=
EXTT13=
EXTT14=
EXTT15=
EXTT16=
EXTT17=
PLAYORDER=
